PathFileType	4	(X/Y/Z)	C:/Users/beibeiliu/ov580/test_trc/User1\sequence.15_training_dense_left.trc
DataRate	CameraRate	NumFrames	NumMarkers	Units	OrigDataRate	OrigDataStartFrame	OrigNumFrames
120	120	10	19	mm	120	1	273
Frame#	Time	ThumbCMC			ThumbMCP			ThumbIP			ThumbTip			IndexMCP			IndexPIP			IndexTip			MiddleMCP			MiddlePIP			MiddleTip			RingMCP			RingPIP			RingTip			PinkyMCP			PinkyPIP			PinkyTip			BackHand1			BackHand2			BackHand3	
		X0	Y0	Z0	X1	Y1	Z1	X2	Y2	Z2	X3	Y3	Z3	X4	Y4	Z4	X5	Y5	Z5	X6	Y6	Z6	X7	Y7	Z7	X8	Y8	Z8	X9	Y9	Z9	X10	Y10	Z10	X11	Y11	Z11	X12	Y12	Z12	X13	Y13	Z13	X14	Y14	Z14	X15	Y15	Z15	X16	Y16	Z16	X17	Y17	Z17	X18	Y18	Z18	
0	0	-167.804	47.7667	62.2656	-145.953	33.3114	54.1116	-120.979	27.5658	43.1557	-99.8412	21.3159	36.6154	-172.46	41.5266	-26.5085	-167.054	37.676	-50.7839	-164.276	36.4069	-81.6303	-196.167	47.9766	-40.4243	-195.169	43.899	-68.2229	-196.894	38.1502	-98.0763	-219.977	48.5364	-38.3634	-221.014	47.0411	-61.3302	-223.642	41.8183	-86.8029	-254.533	44.302	-19.0674	-261.461	41.7651	-34.2158	-266.438	43.5795	-60.2417	-222.77	65.986	13.8162	-228.334	77.7176	50.3783	-192.001	66.9994	35.3131	
1	0.00833333	-169.38	47.6926	59.2611	-145.114	34.9173	52.5723	-125.341	26.9344	39.412	-100.974	21.4727	36.021	-173.382	42.8529	-28.6579	-168.606	39.9207	-55.5999	-166.783	37.8303	-83.148	-195.782	48.6685	-43.3312	-194.659	44.9701	-66.109	-197.019	39.1148	-98.5807	-225.098	51.1663	-37.2242	-220.873	47.3287	-62.2195	-223.44	42.6865	-92.4353	-251.653	44.9176	-16.1616	-263.936	42.2702	-39.2276	-268.824	46.2444	-58.4533	-226.609	66.7549	16.8895	-227.641	78.6326	47.3885	-191.969	66.6012	33.4806	
2	0.0166667	-170.121	47.5573	60.7191	-148.045	34.4857	53.7779	-120.653	26.6893	38.9209	-105.17	21.059	37.6511	-168.044	41.5791	-31.6568	-169.097	39.7243	-53.7498	-163.43	37.4964	-78.7743	-198.182	50.258	-40.6575	-194.731	44.8528	-67.6352	-193.724	39.1411	-96.8697	-220.164	50.7784	-35.1226	-221.11	46.8345	-67.0366	-224.417	42.3462	-91.874	-253.283	46.1293	-17.7736	-263.229	42.3293	-37.3359	-267.442	43.9287	-59.4177	-227.015	67.744	15.8175	-227.401	77.045	47.2141	-194.01	67.3511	35.6706	
3	0.025	-165.425	47.7545	56.4204	-146.716	34.2363	50.3928	-122.731	26.9285	39.4306	-104.944	21.658	39.6232	-170.601	42.2664	-32.0951	-164.036	39.7642	-57.0093	-168.543	37.9357	-79.278	-195.934	50.2943	-39.6563	-194.825	45.3391	-70.4107	-196.44	39.9541	-98.5335	-219.521	50.8266	-38.4397	-221.891	47.4845	-66.3481	-222.19	42.6973	-87.3663	-248.466	45.4952	-17.8986	-258.486	43.4144	-38.7965	-267.09	47.0586	-59.5522	-224.878	66.4007	12.8039	-230.494	78.5302	44.7843	-191.705	67.479	32.2852	
4	0.0333333	-170.645	47.8591	58.754	-144.561	34.211	49.6256	-121.143	27.6847	42.2739	-101.804	22.536	40.5018	-168.016	42.4797	-28.4702	-165.951	40.0535	-52.2767	-163.257	37.8944	-78.0271	-193.038	50.0334	-45.2292	-191.95	43.7146	-72.3723	-193.764	39.8205	-96.8213	-224.387	50.4765	-37.9712	-220.444	47.1839	-67.8291	-224.052	41.6346	-92.1227	-254.309	44.9758	-19.23	-256.948	42.2728	-37.8636	-267.102	46.7739	-59.9129	-225.441	67.8697	12.9651	-224.791	77.4518	44.1944	-192.76	66.4134	32.1623	
5	0.0416667	-168.752	47.1169	55.1704	-145.734	34.331	50.0621	-121.043	26.7158	38.0424	-100.789	22.2547	40.4027	-167.078	41.9708	-27.0583	-167.658	39.5606	-56.6951	-163.418	37.0967	-78.1473	-196.904	49.6513	-44.4384	-192.289	44.6941	-69.5854	-196.18	39.7794	-98.1425	-224.532	50.71	-38.1289	-223.26	47.4187	-67.6261	-225.253	42.4652	-89.0945	-251.481	46.1086	-19.6426	-256.33	42.8597	-36.0869	-266.952	44.8982	-59.2719	-222.379	67.6098	16.9743	-227.3	77.4815	45.9529	-189.504	65.9913	34.1907	
6	0.05	-166.478	48.3405	55.9371	-143.167	35.2332	50.5325	-124.332	26.2737	41.3092	-103.308	21.9082	38.7923	-170.041	43.1759	-32.9211	-164.55	39.4854	-52.5016	-165.202	37.8105	-79.3745	-197.416	50.8924	-45.3295	-191.969	45.8298	-67.7397	-193.381	41.041	-100.292	-219.593	51.436	-35.9697	-221.616	48.5148	-65.0848	-220.511	43.7955	-93.1773	-253.556	46.7968	-19.7669	-260.254	43.4475	-41.3015	-266.629	46.2824	-61.7841	-221.765	66.3001	17.3846	-228.872	78.9879	46.9589	-192.401	69.2438	34.3528	
7	0.0583333	-168.262	49.3363	60.1594	-145.521	35.1608	52.7081	-119.407	28.3529	39.7835	-101.337	23.5141	40.9136	-168.958	43.7246	-31.5914	-163.122	39.3153	-57.3743	-165.845	38.2937	-79.9292	-195.606	50.5707	-44.9678	-192.94	45.7177	-69.0387	-189.97	39.1268	-102.815	-219.119	51.5948	-37.5218	-223.652	48.7522	-65.9924	-222.99	43.5563	-89.9378	-253.66	47.251	-22.7313	-257.971	43.8066	-38.5582	-266.571	45.5654	-65.1052	-226.962	67.6872	16.2169	-228.59	78.3061	44.9384	-189.322	69.016	33.6878	
8	0.0666667	-167.815	47.6435	56.9	-145.055	33.9814	49.0268	-123.798	26.921	38.1375	-100.161	22.7195	35.7253	-169.058	43.8845	-29.7801	-164.053	40.437	-58.7472	-159.933	37.3472	-84.1683	-195.103	51.4216	-42.1663	-195.121	46.1841	-73.3141	-192.891	40.0053	-100.939	-220.846	52.3344	-39.9344	-222.846	49.4187	-65.9543	-219.612	43.1061	-92.8575	-252.687	48.2961	-18.6315	-257.456	44.9006	-37.9681	-266.451	47.3424	-63.2244	-223.915	66.8105	14.5952	-229.292	78.5997	47.4522	-191.497	67.3136	34.173	
9	0.075	-170.115	48.3119	57.7511	-141.942	35.1588	51.539	-120.877	29.1006	42.3311	-103.9	21.4126	37.0243	-167.634	43.2801	-30.8584	-166.922	41.2779	-54.4749	-163.664	39.2466	-81.8432	-193.195	51.1667	-44.466	-190.835	46.209	-70.7377	-192.091	39.8883	-99.3482	-217.352	52.0812	-40.9131	-223.514	50.3588	-64.5163	-221.499	43.0835	-91.1711	-247.785	47.9237	-18.9879	-259.14	44.9878	-40.3524	-264.165	46.7781	-62.9757	-226.224	68.2812	14.5714	-227.889	78.9316	43.2669	-190.288	67.8922	34.8797	
